#include "hUGEDriver.h"
#include <stddef.h>

static const unsigned char order_cnt = 8;

static const unsigned char P0[] = {
    DN(A_4,1,0x000),
    DN(___,0,0x000),
    DN(___,0,0x000),
    DN(___,0,0x000),
    DN(___,0,0x000),
    DN(___,0,0xE01),
    DN(A_4,1,0x000),
    DN(___,0,0x000),
    DN(___,0,0xE01),
    DN(A_4,1,0xE02),
    DN(___,0,0x000),
    DN(___,0,0x000),
    DN(A_4,1,0xE02),
    DN(___,0,0x000),
    DN(___,0,0x000),
    DN(B_4,1,0x000),
    DN(___,0,0x000),
    DN(___,0,0x000),
    DN(C_5,1,0x000),
    DN(___,0,0x000),
    DN(___,0,0x000),
    DN(B_4,1,0x000),
    DN(___,0,0x000),
    DN(___,0,0xD01),
};
static const unsigned char P1[] = {
    DN(E_4,1,0x000),
    DN(___,0,0x000),
    DN(___,0,0x000),
    DN(___,0,0x000),
    DN(___,0,0x000),
    DN(___,0,0x000),
    DN(E_4,1,0x000),
    DN(___,0,0x000),
    DN(___,0,0xE01),
    DN(___,0,0x000),
    DN(___,0,0x000),
    DN(___,0,0x000),
    DN(___,0,0x000),
    DN(___,0,0x000),
    DN(___,0,0x000),
    DN(Fs5,1,0x000),
    DN(___,0,0x000),
    DN(___,0,0x000),
    DN(G_5,1,0x000),
    DN(___,0,0x000),
    DN(___,0,0x000),
    DN(Fs5,1,0x000),
    DN(___,0,0x000),
    DN(___,0,0x000),
};
static const unsigned char P2[] = {
    DN(A_3,1,0x000),
    DN(___,0,0x000),
    DN(___,0,0x000),
    DN(A_3,1,0x000),
    DN(___,0,0x000),
    DN(___,0,0x000),
    DN(A_3,1,0x000),
    DN(___,0,0x000),
    DN(___,0,0x000),
    DN(A_3,1,0x000),
    DN(___,0,0x000),
    DN(___,0,0x000),
    DN(A_3,1,0x000),
    DN(___,0,0x000),
    DN(___,0,0x000),
    DN(B_3,1,0x000),
    DN(___,0,0x000),
    DN(___,0,0x000),
    DN(C_4,1,0x000),
    DN(___,0,0x000),
    DN(___,0,0x000),
    DN(B_3,1,0x000),
    DN(___,0,0x000),
    DN(___,0,0x000),
};
static const unsigned char P3[] = {
    DN(A_5,1,0x000),
    DN(___,0,0x000),
    DN(___,0,0x000),
    DN(A_5,1,0x000),
    DN(___,0,0x000),
    DN(___,0,0x000),
    DN(A_5,2,0x000),
    DN(___,0,0x000),
    DN(___,0,0x000),
    DN(A_5,2,0x000),
    DN(___,0,0x000),
    DN(___,0,0x000),
    DN(A_5,1,0x000),
    DN(___,0,0x000),
    DN(___,0,0x000),
    DN(A_5,1,0x000),
    DN(___,0,0x000),
    DN(___,0,0x000),
    DN(A_5,2,0x000),
    DN(___,0,0x000),
    DN(___,0,0x000),
    DN(A_5,2,0x000),
    DN(___,0,0x000),
    DN(___,0,0x000),
};
static const unsigned char P4[] = {
    DN(A_4,1,0x000),
    DN(___,0,0x000),
    DN(___,0,0x000),
    DN(___,0,0x000),
    DN(___,0,0x000),
    DN(___,0,0xE01),
    DN(A_4,1,0x000),
    DN(___,0,0x000),
    DN(___,0,0x000),
    DN(A_4,1,0xE02),
    DN(___,0,0x000),
    DN(___,0,0x000),
    DN(G_3,1,0x000),
    DN(___,0,0x000),
    DN(___,0,0x000),
    DN(___,0,0x000),
    DN(___,0,0x000),
    DN(___,0,0xE01),
    DN(G_3,1,0x000),
    DN(___,0,0x000),
    DN(___,0,0x000),
    DN(G_3,1,0xE01),
    DN(___,0,0x000),
    DN(___,0,0xD01),
};
static const unsigned char P5[] = {
    DN(E_4,1,0x000),
    DN(___,0,0x000),
    DN(___,0,0x000),
    DN(___,0,0x000),
    DN(___,0,0x000),
    DN(___,0,0x000),
    DN(E_4,1,0x000),
    DN(___,0,0x000),
    DN(___,0,0x000),
    DN(E_4,1,0x000),
    DN(___,0,0x000),
    DN(___,0,0x000),
    DN(D_4,1,0x000),
    DN(___,0,0x000),
    DN(___,0,0x000),
    DN(___,0,0x000),
    DN(___,0,0x000),
    DN(___,0,0x000),
    DN(D_4,1,0x000),
    DN(___,0,0x000),
    DN(___,0,0x000),
    DN(___,0,0xE01),
    DN(___,0,0x000),
    DN(___,0,0x000),
};
static const unsigned char P6[] = {
    DN(A_3,1,0x000),
    DN(___,0,0x000),
    DN(___,0,0x000),
    DN(A_3,1,0x000),
    DN(___,0,0x000),
    DN(___,0,0x000),
    DN(A_3,1,0x000),
    DN(___,0,0x000),
    DN(___,0,0x000),
    DN(A_3,1,0x000),
    DN(___,0,0x000),
    DN(___,0,0x000),
    DN(G_3,1,0x000),
    DN(___,0,0x000),
    DN(___,0,0x000),
    DN(G_3,1,0x000),
    DN(___,0,0x000),
    DN(___,0,0x000),
    DN(G_3,1,0x000),
    DN(___,0,0x000),
    DN(___,0,0x000),
    DN(G_3,1,0x000),
    DN(___,0,0x000),
    DN(___,0,0x000),
};
static const unsigned char P8[] = {
    DN(C_4,1,0x000),
    DN(___,0,0x000),
    DN(___,0,0x000),
    DN(___,0,0x000),
    DN(___,0,0x000),
    DN(___,0,0xE01),
    DN(C_4,1,0x000),
    DN(___,0,0x000),
    DN(___,0,0x000),
    DN(A_4,1,0xE02),
    DN(___,0,0x000),
    DN(___,0,0x000),
    DN(D_4,1,0x000),
    DN(___,0,0x000),
    DN(___,0,0x000),
    DN(___,0,0x000),
    DN(___,0,0x000),
    DN(___,0,0xE01),
    DN(D_4,1,0x000),
    DN(___,0,0x000),
    DN(___,0,0x000),
    DN(D_4,1,0xE01),
    DN(___,0,0x000),
    DN(___,0,0xD01),
};
static const unsigned char P9[] = {
    DN(G_4,1,0x000),
    DN(___,0,0x000),
    DN(___,0,0x000),
    DN(___,0,0x000),
    DN(___,0,0x000),
    DN(___,0,0x000),
    DN(G_4,1,0x000),
    DN(___,0,0x000),
    DN(___,0,0x000),
    DN(E_4,1,0x000),
    DN(___,0,0x000),
    DN(___,0,0x000),
    DN(A_4,1,0x000),
    DN(___,0,0x000),
    DN(___,0,0x000),
    DN(___,0,0x000),
    DN(___,0,0x000),
    DN(___,0,0x000),
    DN(A_4,1,0x000),
    DN(___,0,0x000),
    DN(___,0,0x000),
    DN(___,0,0xE01),
    DN(___,0,0x000),
    DN(___,0,0x000),
};
static const unsigned char P10[] = {
    DN(C_3,1,0x000),
    DN(___,0,0x000),
    DN(___,0,0x000),
    DN(C_3,1,0x000),
    DN(___,0,0x000),
    DN(___,0,0x000),
    DN(C_3,1,0x000),
    DN(___,0,0x000),
    DN(___,0,0x000),
    DN(A_3,1,0x000),
    DN(___,0,0x000),
    DN(___,0,0x000),
    DN(D_3,1,0x000),
    DN(___,0,0x000),
    DN(___,0,0x000),
    DN(D_3,1,0x000),
    DN(___,0,0x000),
    DN(___,0,0x000),
    DN(D_3,1,0x000),
    DN(___,0,0x000),
    DN(___,0,0x000),
    DN(B_3,1,0x000),
    DN(___,0,0x000),
    DN(___,0,0x000),
};

static const unsigned char* const order1[] = {P0,P4,P0,P8};
static const unsigned char* const order2[] = {P1,P5,P1,P9};
static const unsigned char* const order3[] = {P2,P6,P2,P10};
static const unsigned char* const order4[] = {P3,P3,P3,P3};

static const unsigned char duty_instruments[] = {
8,0,128,128,
8,64,240,128,
8,128,240,128,
8,192,240,128,
8,0,241,128,
8,64,241,128,
8,128,241,128,
8,192,241,128,
8,128,240,128,
8,128,240,128,
8,128,240,128,
8,128,240,128,
8,128,240,128,
8,128,240,128,
8,128,240,128,
};
static const unsigned char wave_instruments[] = {
0,64,0,128,
0,32,1,128,
0,32,2,128,
0,32,3,128,
0,32,4,128,
0,32,5,128,
0,32,6,128,
0,32,7,128,
0,32,8,128,
0,32,9,128,
0,32,10,128,
63,32,12,192,
0,32,12,128,
0,32,13,128,
0,32,14,128,
};
static const unsigned char noise_instruments[] = {
128,115,24,30,29,26,0,0,
128,112,14,28,10,0,0,0,
240,0,0,0,0,0,0,0,
240,0,0,0,0,0,0,0,
240,0,0,0,0,0,0,0,
240,0,0,0,0,0,0,0,
240,0,0,0,0,0,0,0,
240,0,0,0,0,0,0,0,
240,0,0,0,0,0,0,0,
240,0,0,0,0,0,0,0,
240,0,0,0,0,0,0,0,
240,0,0,0,0,0,0,0,
240,0,0,0,0,0,0,0,
240,0,0,0,0,0,0,0,
240,0,0,0,0,0,0,0,
};

static const unsigned char waves[] = {
    255,255,255,255,255,255,255,255,103,119,119,119,119,119,119,106,
    0,0,0,0,255,255,255,255,255,255,255,255,255,255,255,255,
    0,0,0,0,0,0,0,0,255,255,255,255,255,255,255,255,
    0,0,0,0,0,0,0,0,0,0,0,0,255,255,255,255,
    0,1,18,35,52,69,86,103,120,137,154,171,188,205,222,239,
    254,220,186,152,118,84,50,16,18,52,86,120,154,188,222,255,
    122,205,219,117,33,19,104,189,220,151,65,1,71,156,221,184,
    15,15,15,15,15,15,15,15,15,15,15,15,15,15,15,15,
    254,252,250,248,246,244,242,240,242,244,246,248,250,252,254,255,
    254,221,204,187,170,153,136,119,138,189,241,36,87,138,189,238,
    132,17,97,237,87,71,90,173,206,163,23,121,221,32,3,71,
    109,67,94,152,151,217,26,43,144,184,190,144,195,126,180,236,
    255,255,255,255,255,255,254,238,238,238,238,238,238,238,238,238,
    88,43,7,238,100,178,84,185,78,72,211,157,234,62,23,57,
    129,18,138,220,165,171,28,26,19,182,11,189,187,104,165,0,
    69,170,128,39,230,33,33,71,72,162,92,128,165,224,94,205,
};

const hUGESong_t speedpwarmup = {4, &order_cnt, order1, order2, order3,order4, duty_instruments, wave_instruments, noise_instruments, NULL, waves};
